<?xml version="1.0" encoding="utf-8"?>
<!-- Generator: Adobe Illustrator 16.0.0, SVG Export Plug-In . SVG Version: 6.00 Build 0)  -->
<!DOCTYPE svg PUBLIC "-//W3C//DTD SVG 1.1//EN" "http://www.w3.org/Graphics/SVG/1.1/DTD/svg11.dtd">
<svg version="1.1" id="图层_3" xmlns="http://www.w3.org/2000/svg" xmlns:xlink="http://www.w3.org/1999/xlink" x="0px" y="0px"
	 width="192px" height="192px" viewBox="0 0 192 192" enable-background="new 0 0 192 192" xml:space="preserve">
<g transform="translate(0 -1028.4)">
	<path fill="#2980B9" d="M183.88,1124.525c0,48.532-39.345,87.875-87.875,87.875c-48.533,0-87.876-39.343-87.876-87.875
		c0-48.532,39.343-87.875,87.876-87.875C144.535,1036.65,183.88,1075.993,183.88,1124.525z"/>
	<path fill="#3498DB" d="M96.005,1036.65v175.75c48.53,0,87.875-39.944,87.875-87.875
		C183.88,1075.794,144.535,1036.65,96.005,1036.65z"/>
	<path fill="#2ECC71" d="M96.005,1036.65v1.6l3.246-0.799c0.803-0.8,0.966-0.8,1.746-0.8H98H96.005z M115.728,1039.045
		c-0.205,0,1.176,2.398,2.994,4.793c2.271,3.995,3.088,5.595,3.495,5.595c0.835-0.8,5.196-3.195,8.238-5.595
		c-4.602-2.395-9.502-3.994-14.479-4.793H115.728z M143.686,1055.822c-0.296,0-1.038,0-2.496,1.599l-2.245,2.396l1.498,1.599
		c0.85,1.595,2.097,2.395,2.746,3.195c1.425,1.599,1.574,1.599,0.247,3.993c-0.567,1.6-0.858,2.396-0.747,2.396
		c0.155,0.8,0.843,0.8,3.743,0.8h4.244c0.251,0,0.812-1.596,0.998-3.196l0.25-2.394l-2.996-2.399c-2.581-2.4-2.821-2.4-3.744-4.793
		C144.622,1057.421,143.927,1055.822,143.686,1055.822L143.686,1055.822z M135.447,1062.215c-0.515,0-3.479,5.591-3.493,6.389
		c-0.01,0,0.919,1.6,1.995,2.4c1.076,0.8,1.826,1.595,1.998,1.595c0.335,0,3.197-3.195,3.744-3.996
		c0.251-0.795-0.329-1.594-1.748-3.193C136.867,1063.814,135.712,1062.215,135.447,1062.215z M161.159,1065.41
		c0.098,0,0.501,0.799,0.501,0.799c-0.009,0.796-1.771,2.394-3.744,3.994c-3.182,2.396-3.761,3.194-5.492,3.194
		c-1.608,0-2.495,0.799-4.995,2.399c-1.666,1.596-3.158,2.395-3.243,3.195c-0.092,0,0.641,0.8,1.499,2.396
		c1.776,1.598,1.762,2.398,0.497,4.793l-0.998,0.799h-2.996c-1.698,0-3.977,0-4.991-0.799c-2.319,0-2.139,0-0.251,5.593
		c2.811,7.99,2.987,8.786,3.497,8.786c0.279,0,3.619-3.196,7.487-6.39c3.869-3.198,7.265-6.393,7.491-6.393
		c0.224,0,0.812,0.799,1.498,0.799c1.184,0.8,1.364,0,3.493-1.598l2.246-1.597l2.249,1.597c5.056,3.198,5.817,3.994,6.239,6.392
		c0.663,3.995,0.937,4.795,1.248,4.795c0.314,0,3.418-3.995,4.244-4.795c0.408-0.798-0.172-1.595-2.996-5.589
		c-1.763-2.399-3.002-4.795-2.993-5.593c0,0,0.391,0,0.747-0.8c0.469,0,1.077,0.8,2.746,2.398
		C170.649,1077.393,166.225,1071.004,161.159,1065.41L161.159,1065.41z M168.65,1094.17c-0.515,0-2.496,2.396-2.245,3.194
		c0.13,0,0.794,0.8,1.248,0.8h1.498c0.607,0,0.709,0,0.497-0.8C169.291,1095.77,168.993,1094.17,168.65,1094.17z M161.66,1097.364
		h-6.49l-6.489,0.8l-11.985,9.583l-11.982,10.387v9.584c0.047,5.589,0.111,10.389,0.25,10.389c0.141,0,1.888,2.395,3.995,3.993
		c2.105,2.395,4.151,3.994,4.74,4.791c1.063,0.803,1.405,0.803,10.738,1.6l9.236,0.794l4.243,2.403
		c2.214,1.592,4.134,3.19,4.245,3.19c0.102,0-0.78,0.803-1.749,1.6l-1.748,1.6l2.746,3.191c1.475,1.599,3.52,3.993,4.494,4.796
		l1.499,2.396v4.79v2.402c10.07-13.582,16.092-31.159,16.477-49.53c0.155-7.193-0.701-14.381-2.246-21.572
		c-0.548,0-1.326-0.795-1.498-0.795c-0.282,0-1.47,0.795-2.746,1.595c-1.28,0.8-2.746,2.398-2.997,2.398
		c-0.25,0-2.193-0.799-4.744-1.598l-4.741-1.601v-2.396c0.037-1.598-0.07-2.393-1.499-3.993L161.66,1097.364L161.66,1097.364z
		 M96.005,1166.862v0.805h0.5C96.505,1167.667,96.026,1166.862,96.005,1166.862z"/>
	<path fill="#27AE60" d="M96.005,1036.65c-8.474,0-16.703,1.252-24.466,3.496c0.687,1.123,0.937,1.154,1.747,2.496
		c4.119,6.764,4.604,7.575,5.743,7.739c0.68,0.101,2.513,0.18,4.245,0.25h3.245l2.496-5.492l2.247-5.242l4.744-1.499V1036.65z
		 M50.319,1049.381c-7.646,4.658-14.589,10.524-20.471,17.226c-10.158,11.573-17.016,25.89-19.973,41.691
		c1.241-0.071,2.354-0.301,4.994-0.25c7.548,0.148,6.669-0.132,9.236,3.746c1.431,2.16,1.529,2.083,3.746,2.25
		c2.64,0.191,2.526,0.063,1.248-4.249c-0.5-1.676-0.757-3.314-0.749-3.743c0.007-0.515,1.447-1.764,4.493-4.245
		c5.086-4.142,4.74-3.514,3.995-7.739c-0.156-0.87,0.183-1.643,1.748-3.246c1.856-1.906,1.83-1.661,3.745-1.498h1.998l0.249-3.245
		c0.144-1.853,0.387-3.387,0.499-3.496s5.032-3.019,10.984-6.241c5.953-3.221,11.18-5.952,11.484-6.241
		c0.476-0.453-0.819-2.176-7.24-10.236c-4.134-5.187-7.505-9.72-7.738-9.985C52.518,1049.831,50.802,1049.51,50.319,1049.381z
		 M34.591,1111.544c-0.188,0.113-0.231,0.8-0.25,1.747c-0.035,1.653-0.017,1.783,1.748,2.75c2.169,1.182,2.55,1.333,2.246,0.496
		C37.872,1115.25,34.923,1111.352,34.591,1111.544z M25.354,1117.286c-0.495,0.288-1.603,4.372-1.249,4.746
		c0.171,0.176,2.551,0.696,4.993,1.246c2.8,0.631,4.443,0.967,4.744,0.751c0.678-0.503,1.638-3.108,1.248-3.498
		C34.599,1120.035,25.725,1117.064,25.354,1117.286z M15.119,1120.035l-2.996,1.494c-1.595,0.839-3.273,1.755-3.745,1.749
		c-0.031,0-0.207,0.006-0.25,0c-0.059,3.811,0.331,7.536,0.749,11.233l1.747,0.999l2.746-0.251h2.747l1.747,3.745
		c0.925,1.998,1.892,3.794,2.247,3.996c0.355,0.203,2.73,0.203,4.993,0.249h3.994l-0.25,3.245c-0.067,3.291,0.043,3.433-1.747,5.991
		c-1.027,1.469-1.755,3.185-1.748,3.746c0.008,0.536,1.974,5.789,4.244,11.732l3.995,10.735l4.244,2.247
		c3.113,1.584,4.005,2.191,3.995,2.746c-0.005,0.187-0.963,5.617-1.499,8.486c8.153,6.725,17.211,12.271,27.461,15.729
		c9.371-9.627,18.381-19.137,19.724-20.473l1.997-1.996l0.499-5.243c0.436-2.949,0.983-5.67,1-5.989
		c0.015-0.313,1.325-1.67,2.746-3.248c1.302-1.441,2.074-2.667,2.247-2.994v-0.5c-0.25-0.304-3.699-2.869-8.24-5.992l-8.487-5.74
		l-2.997-0.251c-2.052-0.037-3.128-0.123-3.495-0.497c-0.304-0.313-0.78-2.093-0.998-4.244c-0.22-2.094-0.64-4.058-0.749-4.245
		s-2.099-0.202-4.494-0.251c-2.395-0.053-4.711-0.31-4.993-0.497c-0.319-0.212-0.312-1.866-0.499-3.996
		c-0.172-1.903-0.545-3.524-0.75-3.745c-0.202-0.218-2.988-0.562-6.242-0.748c-5.397-0.313-6.373-0.334-9.235-1.496l-3.245-1.498
		l-4.245,1.995l-4.494,1.747l-4.743-0.248c-5.418-0.108-5.091,0.608-5.741-4.245c-0.223-1.668-0.296-3.12-0.5-3.243
		c-0.202-0.135-1.396-0.344-2.496-0.502l-1.997-0.497l0.249-1.245c0.027-0.862,0.059-2.571,0.25-3.749l0.25-2.243l-1.248-1.252
		L15.119,1120.035z M39.834,1122.778c-0.202,0.19-0.362,1.004-0.499,1.747l-0.25,1.248l7.739,3.245
		c7.81,2.997,9.222,3.206,10.486,1.998c0.483-0.46,0.374-0.49-0.75-0.999c-0.718-0.327-4.626-2.398-8.738-4.244
		C43.285,1123.741,40.057,1122.567,39.834,1122.778z"/>
</g>
</svg>
